<?xml version="1.0" encoding="UTF-8" standalone="no"?>
<!-- Created with Inkscape (http://www.inkscape.org/) -->

<svg
   width="131.48082mm"
   height="49.19133mm"
   viewBox="0 0 131.48082 49.19133"
   version="1.1"
   id="svg1"
   xml:space="preserve"
   inkscape:version="1.3.2 (091e20e, 2023-11-25)"
   sodipodi:docname="KWhite.svg"
   xmlns:inkscape="http://www.inkscape.org/namespaces/inkscape"
   xmlns:sodipodi="http://sodipodi.sourceforge.net/DTD/sodipodi-0.dtd"
   xmlns="http://www.w3.org/2000/svg"
   xmlns:svg="http://www.w3.org/2000/svg"><sodipodi:namedview
     id="namedview1"
     pagecolor="#ffffff"
     bordercolor="#000000"
     borderopacity="0.25"
     inkscape:showpageshadow="2"
     inkscape:pageopacity="0.0"
     inkscape:pagecheckerboard="0"
     inkscape:deskcolor="#d1d1d1"
     inkscape:document-units="mm"
     inkscape:zoom="0.85072119"
     inkscape:cx="232.7437"
     inkscape:cy="289.16642"
     inkscape:window-width="1920"
     inkscape:window-height="1085"
     inkscape:window-x="0"
     inkscape:window-y="43"
     inkscape:window-maximized="0"
     inkscape:current-layer="layer1" /><defs
     id="defs1" /><g
     inkscape:label="Layer 1"
     inkscape:groupmode="layer"
     id="layer1"
     transform="translate(-31.916341,-42.999238)"><path
       style="fill:#f9f9f9"
       d="m 64.760489,67.594908 v -24.59567 h 0.804333 0.804334 v 24.59567 24.59566 h -0.804334 -0.804333 z m -32.400764,16.13321 c -0.423391,-0.25816 -0.46636,-0.41457 -0.435492,-1.58527 0.0259,-0.98231 0.04187,-1.07023 0.220617,-1.2148 0.105982,-0.0857 0.391732,-0.17942 0.635,-0.20824 0.243268,-0.0288 5.858967,-0.041 12.479331,-0.027 l 12.037027,0.0254 0.218474,0.20526 c 0.212903,0.20002 0.218473,0.23304 0.218473,1.29486 0,1.01521 -0.01301,1.10304 -0.1905,1.2864 -0.104775,0.10824 -0.32001,0.23992 -0.4783,0.29264 -0.208874,0.0696 -3.598897,0.0958 -12.361334,0.0955 -11.80563,-3.1e-4 -12.079518,-0.004 -12.343296,-0.1648 z m 41.05765,-15.94271 0.02145,-12.46717 h 1.481667 1.481667 l 0.04233,5.1505 0.04233,5.15051 1.813023,-4.93884 c 0.997163,-2.71636 1.864916,-5.04361 1.928341,-5.17167 l 0.115318,-0.23283 h 1.44703 1.447029 l -0.03942,0.1905 c -0.02168,0.10477 -0.964214,2.68605 -2.094515,5.73616 -1.130301,3.05012 -2.072716,5.62497 -2.094255,5.72188 -0.02763,0.12435 3.755735,11.8342 4.272666,13.22428 0.03173,0.0853 -0.275131,0.103 -1.470537,0.0847 l -1.510633,-0.0232 -1.44063,-4.3815 c -0.792347,-2.40983 -1.460007,-4.38129 -1.483689,-4.38104 -0.02368,2.6e-4 -0.244362,0.54318 -0.490401,1.2065 l -0.447343,1.20604 0.0028,3.19617 0.0028,3.19616 h -1.52428 -1.524281 z m 11.070448,0.0212 v -12.446 h 1.524 1.524 v 12.446 12.446 h -1.524 -1.524 z m 5.08,0 v -12.446 h 2.704961 c 2.675882,0 2.712522,0.002 3.407832,0.22001 0.94946,0.2972 1.52879,0.64211 2.18541,1.30112 0.6498,0.65217 1.11588,1.48563 1.35617,2.42514 0.13995,0.5472 0.16672,0.93487 0.16549,2.39611 -0.001,1.18896 -0.0402,1.92618 -0.12334,2.31844 -0.15318,0.72288 -0.75485,1.99662 -1.21757,2.57758 -0.31633,0.39718 -0.99427,1.00072 -1.34373,1.19629 -0.11274,0.0631 0.0676,0.8952 1.32578,6.117 0.80095,3.32419 1.47563,6.11155 1.4993,6.19413 0.0402,0.14033 -0.0553,0.14863 -1.46179,0.127 l -1.50482,-0.0231 -0.40594,-1.69333 c -0.91233,-3.80567 -2.37614,-9.82286 -2.39491,-9.84456 -0.011,-0.0128 -0.27315,-0.0469 -0.58246,-0.0757 l -0.562382,-0.0525 v 5.85424 5.85424 h -1.524001 -1.524 z m 5.284373,-2.44542 c 0.69523,-0.34226 1.16503,-0.86486 1.39821,-1.55536 0.1503,-0.44505 0.17541,-0.72622 0.17535,-1.96349 -7e-5,-1.41116 -0.006,-1.45563 -0.24078,-1.95206 -0.13574,-0.28647 -0.39887,-0.65061 -0.6034,-0.83504 -0.57677,-0.52007 -1.00829,-0.67006 -2.05559,-0.71446 l -0.910162,-0.0386 v 3.70519 3.7052 l 0.843832,-0.0406 c 0.7306,-0.0352 0.91745,-0.0769 1.39254,-0.31076 z m 6.843854,2.42426 0.0214,-12.46717 h 1.48167 1.48167 l 0.0423,5.1505 0.0423,5.15051 1.81303,-4.93884 c 0.99716,-2.71636 1.86491,-5.04361 1.92834,-5.17167 l 0.11532,-0.23283 h 1.44702 1.44703 l -0.0394,0.1905 c -0.0217,0.10477 -0.96421,2.68605 -2.09451,5.73616 -1.1303,3.05012 -2.07272,5.62497 -2.09426,5.72188 -0.0276,0.12435 3.75574,11.8342 4.27267,13.22428 0.0317,0.0853 -0.27513,0.103 -1.47054,0.0847 l -1.51063,-0.0232 -1.44063,-4.3815 c -0.79235,-2.40983 -1.46001,-4.38129 -1.48369,-4.38104 -0.0237,2.6e-4 -0.24436,0.54318 -0.4904,1.2065 l -0.44735,1.20604 0.003,3.19617 0.003,3.19616 h -1.52428 -1.52428 z m 13.45327,5.50496 c -0.43149,-3.831 -1.06122,-9.43244 -1.39941,-12.44763 l -0.61488,-5.48217 h 1.50907 c 1.26881,0 1.50906,0.0197 1.50906,0.12402 0,0.1624 1.75496,15.88955 1.82848,16.38598 0.031,0.20955 0.0691,0.3429 0.0846,0.29634 0.0155,-0.0466 0.54498,-3.76132 1.17668,-8.255 0.6317,-4.49369 1.16721,-8.25606 1.19003,-8.36084 0.0411,-0.18865 0.0557,-0.1905 1.51247,-0.1905 1.10002,0 1.48061,0.0267 1.50912,0.10584 0.021,0.0582 0.56797,3.811 1.21556,8.33954 0.64759,4.52854 1.19696,8.23377 1.22082,8.23384 0.0239,6e-5 0.46105,-3.75273 0.97154,-8.33955 l 0.92816,-8.33967 h 1.50284 1.50284 l -0.0406,0.23284 c -0.0363,0.20777 -2.74912,24.49443 -2.74912,24.61142 0,0.0263 -0.79937,0.0477 -1.77638,0.0477 -1.77311,0 -1.77647,-3.5e-4 -1.81901,-0.1905 -0.0234,-0.10477 -0.5794,-3.962 -1.23546,-8.57162 -0.65606,-4.60962 -1.20251,-8.39079 -1.21433,-8.40261 -0.0118,-0.0118 -0.57218,3.83589 -1.24525,8.55046 l -1.22377,8.57194 -1.77922,0.0228 -1.77922,0.0228 z m 16.97681,-5.37796 c 0.75906,-6.7871 1.38091,-12.3878 1.3819,-12.446 0.001,-0.0818 0.4815,-0.10584 2.11328,-0.10584 h 2.11148 l 0.0497,0.35984 c 0.0273,0.1979 0.2214,1.88383 0.43122,3.7465 0.63039,5.59626 2.32342,20.71891 2.32342,20.75347 0,0.0177 -0.66418,0.0322 -1.47596,0.0322 -1.33368,0 -1.4799,-0.0143 -1.5168,-0.14816 -0.0224,-0.0815 -0.14603,-1.13014 -0.27461,-2.33032 l -0.23379,-2.18214 -1.40325,0.0231 -1.40326,0.0232 -0.25055,2.30717 -0.25055,2.30716 h -1.49118 -1.49118 z m 4.54482,4.55083 c -0.60326,-5.52025 -1.01434,-8.94651 -1.0593,-8.82917 -0.047,0.1227 -1.01168,8.71386 -1.00355,8.93761 0.001,0.0364 0.46912,0.0554 1.03956,0.0423 0.86239,-0.0198 1.03483,-0.0452 1.02329,-0.15077 z m 5.55954,-4.65667 v -12.446 h 1.524 1.524 v 10.922 10.922 h 3.38667 3.38667 v 1.524 1.524 h -4.91067 -4.91067 z m 11.34534,0 v -12.446 h 1.524 1.524 v 10.922 10.922 h 3.38666 3.38667 v 1.524 1.524 h -4.91067 -4.91066 z M 35.296488,79.445138 c 0,-0.025 0.09373,-0.47267 0.208284,-0.99484 0.249705,-1.1382 0.744625,-3.54887 0.933667,-4.54773 0.310903,-1.64274 0.614759,-4.49482 0.771234,-7.239 0.0239,-0.4191 0.07285,-1.12395 0.10878,-1.56633 0.03593,-0.44238 0.03178,-0.92912 -0.0092,-1.08163 -0.05242,-0.19498 -0.392991,-0.58455 -1.147265,-1.31233 -1.657147,-1.59894 -1.750227,-1.6982 -1.927267,-2.05521 -0.157954,-0.31851 -0.165881,-0.53367 -0.165881,-4.50241 v -4.1679 l 0.234757,-0.23476 0.234758,-0.23476 h 1.646724 c 2.186513,0 2.018442,-0.16649 2.074761,2.05528 l 0.04233,1.67005 1.629833,0.023 c 1.274291,0.018 1.629806,-4.9e-4 1.629706,-0.0847 -7.1e-5,-0.0592 0.01631,-0.79033 0.03641,-1.6247 0.04191,-1.74019 0.09888,-1.90592 0.69251,-2.01466 0.181248,-0.0332 1.395295,-0.0584 2.697883,-0.0559 2.567488,0.005 2.764036,0.036 2.926962,0.46453 0.04457,0.11722 0.08103,0.87514 0.08103,1.68428 0,0.87786 0.03375,1.49202 0.08368,1.52288 0.108647,0.0671 3.111437,0.0667 3.22014,-5.2e-4 0.04916,-0.0304 0.08285,-0.68418 0.08285,-1.60782 0,-1.52325 0.0044,-1.5617 0.204261,-1.79417 l 0.204261,-0.23755 h 1.656179 1.65618 l 0.23506,0.23469 0.235059,0.23469 0.02414,4.08331 c 0.01868,3.15956 -4.78e-4,4.15359 -0.08467,4.39399 -0.13515,0.3859 -1.343088,1.64782 -2.765718,2.8893 -0.344834,0.30092 -0.450167,0.56853 -0.473384,1.20269 -0.02351,0.6422 0.09663,3.03678 0.208142,4.14866 0.0467,0.46567 0.103066,1.07527 0.12525,1.35467 0.146522,1.84537 0.920114,6.03687 1.52356,8.255 0.107683,0.39582 0.219889,0.82444 0.249347,0.9525 l 0.05356,0.23283 h -9.568947 c -5.262921,0 -9.568947,-0.0204 -9.568947,-0.0454 z m 11.667411,-11.06707 -0.02574,-2.56116 -0.230263,-0.39169 c -0.145258,-0.2471 -0.394719,-0.49715 -0.67574,-0.67734 -0.422333,-0.2708 -0.485149,-0.28556 -1.20907,-0.28419 -0.619322,10e-4 -0.829095,0.0362 -1.110276,0.18552 -0.461508,0.24502 -0.851044,0.70279 -0.974676,1.14542 -0.106047,0.37967 -0.136466,4.89303 -0.0341,5.05867 0.03364,0.0544 0.828968,0.0859 2.169361,0.0859 h 2.116247 z"
       id="path1" /></g></svg>
