<svg xmlns="http://www.w3.org/2000/svg" xmlns:xlink="http://www.w3.org/1999/xlink" width="500" zoomAndPan="magnify" viewBox="0 0 375 374.999991" height="500" preserveAspectRatio="xMidYMid meet" version="1.0"><defs><clipPath id="0429a3f70a"><path d="M 74 0 L 301.226562 0 L 301.226562 375 L 74 375 Z M 74 0 " clip-rule="nonzero"/></clipPath></defs><path fill="#ffffff" d="M 247.035156 267.527344 C 247.910156 285.175781 255.453125 296.277344 267.9375 307.878906 L 285.460938 324.167969 C 289.917969 326.992188 292.652344 332.121094 292.652344 337.65625 L 292.652344 337.667969 C 292.652344 346.324219 286.082031 353.34375 277.984375 353.34375 L 100.984375 353.425781 C 92.875 353.425781 86.296875 346.40625 86.296875 337.75 C 86.296875 332.214844 89.027344 327.082031 93.488281 324.257812 L 108.140625 310.371094 C 121.199219 297.992188 128.667969 285.925781 128.667969 267.277344 Z M 298.714844 363.054688 C 298.714844 357.742188 294.394531 353.425781 289.074219 353.425781 L 86.164062 353.425781 C 80.847656 353.425781 76.527344 357.742188 76.527344 363.054688 C 76.527344 368.371094 80.847656 372.683594 86.164062 372.683594 L 289.074219 372.683594 C 294.394531 372.683594 298.714844 368.371094 298.714844 363.054688 Z M 245.238281 267.425781 C 246.546875 267.425781 247.789062 267.101562 248.871094 266.527344 C 252.191406 264.777344 253.589844 260.75 252.394531 257.195312 C 248.722656 246.351562 232.929688 195.859375 232.929688 129.546875 L 142.308594 129.546875 C 142.308594 195.859375 126.527344 246.351562 122.847656 257.195312 C 121.644531 260.75 123.050781 264.777344 126.371094 266.527344 C 127.453125 267.101562 128.695312 267.425781 130.003906 267.425781 Z M 246.417969 118.992188 C 246.417969 113.128906 241.660156 108.390625 235.804688 108.390625 L 139.4375 108.390625 C 133.570312 108.390625 128.824219 113.140625 128.824219 118.992188 C 128.824219 124.851562 133.578125 129.59375 139.4375 129.59375 L 235.796875 129.59375 C 241.660156 129.601562 246.417969 124.851562 246.417969 118.992188 Z M 230.773438 2.316406 L 230.773438 22.15625 L 212.820312 22.15625 L 212.820312 2.316406 L 162.402344 2.316406 L 162.402344 22.15625 L 144.460938 22.15625 L 144.460938 2.316406 L 109.324219 2.316406 L 109.324219 80.527344 C 109.324219 93.09375 117.296875 104.277344 129.1875 108.390625 L 246.054688 108.390625 C 257.945312 104.277344 265.914062 93.09375 265.914062 80.527344 L 265.914062 2.316406 Z M 230.773438 2.316406 " fill-opacity="1" fill-rule="nonzero"/><g clip-path="url(#0429a3f70a)"><path fill="#010101" d="M 100.976562 355.742188 C 96.40625 355.742188 92.125 353.851562 88.910156 350.417969 C 85.730469 347.027344 83.976562 342.527344 83.976562 337.75 C 83.976562 331.535156 87.066406 325.695312 92.050781 322.433594 L 106.546875 308.695312 C 118.4375 297.425781 126.359375 286.066406 126.359375 267.277344 C 126.359375 266.667969 126.601562 266.074219 127.035156 265.640625 C 127.472656 265.203125 128.054688 264.964844 128.675781 264.964844 C 128.675781 264.964844 128.675781 264.964844 128.6875 264.964844 L 247.054688 265.214844 C 248.289062 265.214844 249.308594 266.183594 249.363281 267.417969 C 250.226562 284.84375 258.046875 295.519531 269.53125 306.183594 L 286.90625 322.332031 C 291.902344 325.59375 294.988281 331.433594 294.988281 337.65625 C 294.988281 347.59375 287.371094 355.65625 278 355.667969 L 100.976562 355.742188 C 100.984375 355.742188 100.976562 355.742188 100.976562 355.742188 Z M 130.957031 269.59375 C 130.429688 285.925781 124.164062 298.378906 109.742188 312.046875 L 95.089844 325.933594 C 94.980469 326.035156 94.859375 326.128906 94.738281 326.214844 C 90.964844 328.601562 88.621094 333.019531 88.621094 337.742188 C 88.621094 341.34375 89.929688 344.714844 92.300781 347.25 C 94.628906 349.742188 97.714844 351.109375 100.984375 351.109375 C 100.984375 351.109375 100.984375 351.109375 100.992188 351.109375 L 278 351.027344 C 284.8125 351.027344 290.363281 345.027344 290.363281 337.667969 C 290.363281 332.925781 288.019531 328.507812 284.246094 326.121094 C 284.128906 326.046875 284.015625 325.953125 283.90625 325.859375 L 266.378906 309.574219 C 254.554688 298.582031 246.34375 287.527344 244.886719 269.84375 Z M 93.488281 324.257812 Z M 289.074219 375 L 86.164062 375 C 79.574219 375 74.210938 369.640625 74.210938 363.054688 C 74.210938 356.472656 79.574219 351.109375 86.164062 351.109375 L 289.074219 351.109375 C 295.664062 351.109375 301.03125 356.472656 301.03125 363.054688 C 301.03125 369.640625 295.664062 375 289.074219 375 Z M 86.164062 355.742188 C 82.125 355.742188 78.84375 359.019531 78.84375 363.054688 C 78.84375 367.09375 82.125 370.371094 86.164062 370.371094 L 289.074219 370.371094 C 293.117188 370.371094 296.398438 367.09375 296.398438 363.054688 C 296.398438 359.019531 293.117188 355.742188 289.074219 355.742188 Z M 245.238281 269.742188 L 130.003906 269.742188 C 130.003906 269.742188 130.003906 269.742188 129.992188 269.742188 C 128.351562 269.742188 126.730469 269.332031 125.285156 268.574219 C 121.058594 266.34375 119.074219 261.128906 120.660156 256.453125 C 123.886719 246.917969 139.992188 195.972656 139.992188 129.546875 C 139.992188 128.269531 141.03125 127.230469 142.308594 127.230469 L 232.929688 127.230469 C 234.210938 127.230469 235.25 128.269531 235.25 129.546875 C 235.25 195.972656 251.355469 246.917969 254.582031 256.453125 C 256.164062 261.128906 254.171875 266.34375 249.945312 268.574219 C 248.511719 269.332031 246.878906 269.742188 245.238281 269.742188 Z M 130.003906 265.109375 L 245.238281 265.109375 C 245.238281 265.109375 245.238281 265.109375 245.25 265.109375 C 246.148438 265.109375 247 264.898438 247.796875 264.480469 C 250.03125 263.296875 251.070312 260.480469 250.207031 257.933594 C 246.972656 248.390625 231.003906 197.878906 230.632812 131.859375 L 144.617188 131.859375 C 144.246094 197.878906 128.277344 248.390625 125.042969 257.933594 C 124.183594 260.480469 125.210938 263.296875 127.453125 264.480469 C 128.242188 264.898438 129.105469 265.109375 130.003906 265.109375 Z M 235.796875 131.917969 L 139.4375 131.917969 C 132.308594 131.917969 126.507812 126.121094 126.507812 119 C 126.507812 111.878906 132.308594 106.082031 139.4375 106.082031 L 235.796875 106.082031 C 242.921875 106.082031 248.722656 111.878906 248.722656 119 C 248.722656 126.121094 242.929688 131.917969 235.796875 131.917969 Z M 139.4375 110.703125 C 134.859375 110.703125 131.140625 114.425781 131.140625 118.992188 C 131.140625 123.566406 134.867188 127.277344 139.4375 127.277344 L 235.796875 127.277344 C 240.375 127.277344 244.089844 123.554688 244.089844 118.992188 C 244.089844 114.417969 240.363281 110.703125 235.796875 110.703125 Z M 246.445312 110.703125 L 128.796875 110.703125 L 128.425781 110.574219 C 115.617188 106.140625 107.007812 94.066406 107.007812 80.519531 L 107.007812 0 L 146.777344 0 L 146.777344 19.84375 L 160.09375 19.84375 L 160.09375 0 L 215.144531 0 L 215.144531 19.84375 L 228.464844 19.84375 L 228.464844 0 L 268.234375 0 L 268.234375 80.527344 C 268.234375 94.074219 259.621094 106.148438 246.816406 110.582031 Z M 129.585938 106.074219 L 245.65625 106.074219 C 256.40625 102.183594 263.597656 91.972656 263.597656 80.527344 L 263.597656 4.628906 L 233.097656 4.628906 L 233.097656 24.472656 L 210.511719 24.472656 L 210.511719 4.628906 L 164.730469 4.628906 L 164.730469 24.472656 L 142.144531 24.472656 L 142.144531 4.628906 L 111.644531 4.628906 L 111.644531 80.527344 C 111.644531 91.972656 118.835938 102.183594 129.585938 106.074219 Z M 129.585938 106.074219 " fill-opacity="1" fill-rule="nonzero"/></g></svg>